<svg width="153" height="76" viewBox="0 0 153 76" fill="none" xmlns="http://www.w3.org/2000/svg">
<g clip-path="url(#clip0_15_474)">
<path d="M46.3499 51.8428H39.9599C39.9599 51.8428 38.5199 54.8285 35.0999 54.8285C32.9399 54.919 30.5999 53.7428 29.5199 51.8428H23.1299C23.1299 51.8428 25.9199 60.2571 35.0999 60.2571C43.1099 60.2571 46.3499 51.8428 46.3499 51.8428Z" fill="#8E8F8F"/>
<path d="M76.9501 50.3051C77.0401 50.3051 79.2001 44.1527 79.2001 44.1527L81.4501 50.3051H87.5701L82.2601 36.5527H76.1401L70.8301 50.3051H76.9501Z" fill="#8E8F8F"/>
<path d="M44.91 66.5908H42.12L40.5 74.2813H41.49L42.12 71.1146H44.55C46.35 71.1146 47.25 69.9384 47.25 68.5813C47.34 67.3146 46.53 66.5908 44.91 66.5908ZM44.37 70.3003H42.3L42.93 67.4956H44.37C45.27 67.4956 46.26 67.4956 46.26 68.6718C46.35 69.7575 45.54 70.3003 44.37 70.3003Z" fill="#8E8F8F"/>
<path d="M61.7401 50.3051L70.8301 36.5527H63.2701L58.6801 44.967H57.9601L52.6501 36.5527H45.8101L54.9001 50.3051H61.7401Z" fill="#8E8F8F"/>
<path d="M61.7399 51.8428H54.8999V60.2571H61.7399V51.8428Z" fill="#8E8F8F"/>
<path d="M13.8599 51.8429C14.3099 52.2048 14.5799 52.7476 14.5799 53.2905C14.5799 54.0143 13.8599 55.5524 10.7999 55.5524H7.01991V50.2143H19.1699C18.5399 49.3095 17.7299 48.5857 16.9199 47.9524C15.8399 47.3191 16.1999 47.2286 16.1999 47.2286C16.1999 47.2286 18.4499 44.9667 18.4499 42.6143C18.4499 40.2619 16.6499 36.4619 10.7999 36.4619H0.899902V60.2572H13.0499C16.0199 60.1667 18.7199 58.3572 19.8899 55.6429C20.2499 54.3762 20.2499 53.1095 19.8899 51.8429H13.8599ZM6.7499 40.7143C6.7499 40.7143 8.9099 40.8048 10.8899 40.7143C12.8699 40.6238 12.9599 46.0524 10.7099 46.0524C8.4599 46.0524 6.7499 46.0524 6.7499 46.0524V40.7143Z" fill="#8E8F8F"/>
<path d="M29.0698 50.3051C29.0698 50.3051 27.7198 41.8908 34.5598 41.8908C42.0298 41.8908 40.4998 50.3051 40.4998 50.3051H46.6198C46.6198 50.3051 48.4198 36.5527 34.4698 36.5527C20.5198 36.5527 22.9498 50.3051 22.9498 50.3051H29.0698Z" fill="#8E8F8F"/>
<path d="M137.79 47.9524C137.79 42.5238 132.48 36.4619 127.89 36.4619H117.27V50.2143H122.58V41.0762H126.36C129.06 41.0762 132.48 45.0572 132.48 47.9524C132.48 50.8476 129.6 55.6429 126.36 55.6429H122.58V51.8429H117.27V60.2572H128.7C133.2 60.2572 137.79 53.4714 137.79 47.9524Z" fill="#8E8F8F"/>
<path d="M86.8497 28.862L82.2597 20.4478L76.9497 35.0144H84.5997L86.8497 28.862Z" fill="#8E8F8F"/>
<path d="M138.87 38.9955C140.22 38.9955 141.48 38.2717 142.11 37.0955C142.47 36.5526 142.65 35.8288 142.56 35.1955C142.56 34.5621 142.38 33.8383 142.11 33.2955C141.75 32.7526 141.3 32.3002 140.76 31.9383C140.22 31.5764 139.5 31.3955 138.87 31.4859C138.24 31.4859 137.52 31.6669 136.98 32.0288C136.44 32.3907 135.9 32.8431 135.63 33.3859C135 34.5621 135 36.0098 135.63 37.1859C136.35 38.3621 137.52 39.0859 138.87 38.9955ZM136.26 33.6574C136.53 33.205 136.89 32.8431 137.34 32.5717C138.33 32.0288 139.5 32.0288 140.49 32.5717C140.94 32.8431 141.3 33.205 141.57 33.6574C142.11 34.6526 142.11 35.8288 141.57 36.824C141.3 37.2764 140.94 37.6383 140.49 37.9098C140.04 38.1812 139.5 38.3621 138.96 38.3621C138.42 38.3621 137.88 38.2717 137.43 38.0002C136.98 37.7288 136.62 37.3669 136.35 36.9145C135.72 35.8288 135.72 34.6526 136.26 33.6574Z" fill="#8E8F8F"/>
<path d="M138.42 36.1001H139.14L139.95 37.2763H141.03L140.13 35.9191C140.4 35.8286 140.58 35.6477 140.67 35.3763C140.85 35.1048 140.85 34.8334 140.85 34.562C140.85 34.1096 140.67 33.7477 140.4 33.4763C140.04 33.2048 139.59 33.0239 139.05 33.1144H137.25V37.2763H138.33V36.1001H138.42ZM138.33 34.0191H138.96C139.14 34.0191 139.41 34.1096 139.5 34.2001C139.68 34.2905 139.68 34.4715 139.68 34.6525C139.68 34.8334 139.59 35.0144 139.5 35.1048C139.32 35.1953 139.14 35.2858 138.96 35.2858H138.33V34.0191Z" fill="#8E8F8F"/>
<path d="M101.25 51.8428L106.65 60.2571H114.21L108.09 51.8428H101.25Z" fill="#8E8F8F"/>
<path d="M100.53 51.8428H95.2197V60.2571H100.53V51.8428Z" fill="#8E8F8F"/>
<path d="M92.8798 35.0144L95.2198 28.862L90.6298 20.4478L85.3198 35.0144H92.8798Z" fill="#8E8F8F"/>
<path d="M67.0498 60.2571H73.8898L75.4198 55.6428H83.0698L84.5998 60.2571H91.4398L88.3798 51.8428H70.1098L67.0498 60.2571Z" fill="#8E8F8F"/>
<path d="M101.25 35.0144L103.59 28.862L98.9999 20.4478L93.6899 35.0144H101.25Z" fill="#8E8F8F"/>
<path d="M93.15 68.7622L92.88 69.9384C92.61 71.2051 92.16 72.3813 91.44 73.5574H90.81L90.27 76.0908H91.17L91.53 74.3717H95.67L95.31 76.0908H96.21L96.75 73.5574H96.03L97.02 68.7622H93.15ZM95.04 73.467H92.34C92.97 72.3813 93.42 71.2051 93.69 69.9384L93.78 69.3955H95.85L95.04 73.467Z" fill="#8E8F8F"/>
<path d="M124.92 68.5811C124.83 68.5811 124.65 68.5811 124.56 68.5811C122.85 68.5811 121.59 70.1192 121.59 72.1096C121.5 73.2858 122.31 74.3715 123.48 74.462C123.57 74.462 123.75 74.462 123.84 74.462C125.01 74.5525 126.09 73.7382 126.36 72.562H125.46C125.28 73.2858 124.65 73.7382 123.93 73.7382C123.21 73.7382 122.49 73.1953 122.49 72.4715C122.49 72.3811 122.49 72.2906 122.49 72.2001C122.49 72.1096 122.49 71.9287 122.49 71.8382H126.63C126.72 71.5668 126.72 71.2049 126.72 70.9334C126.81 69.7572 126 68.6715 124.92 68.5811ZM125.82 70.7525C125.82 70.843 125.82 70.843 125.82 70.9334H122.67C122.76 70.0287 123.57 69.3049 124.56 69.2144C125.28 69.1239 125.91 69.6668 125.91 70.3906C125.82 70.5715 125.82 70.662 125.82 70.7525Z" fill="#8E8F8F"/>
<path d="M99.09 71.7479C98.73 73.1051 98.37 73.5574 97.92 73.5574C97.74 73.5574 97.65 73.5574 97.47 73.467L97.29 74.1908C97.47 74.2813 97.74 74.2813 97.92 74.2813C98.82 74.2813 99.45 73.6479 99.9 71.9289L100.53 69.486H102.42L101.43 74.2813H102.33L103.5 68.7622H99.81L99.09 71.7479Z" fill="#8E8F8F"/>
<path d="M116.82 73.1955L116.1 68.7622H114.84L113.67 74.2813H114.57L115.47 69.8479H115.56L116.19 74.2813H117.09L119.61 69.8479L118.71 74.2813H119.61L120.78 68.7622H119.43L116.82 73.1955Z" fill="#8E8F8F"/>
<path d="M104.85 70.2098C104.85 70.3003 104.85 70.3908 104.85 70.4812C104.85 71.205 105.3 71.7479 106.02 71.8384L103.59 74.1908H104.76L106.92 71.8384H108.09L107.55 74.1908H108.45L109.62 68.6717H106.74C105.84 68.5812 104.94 69.305 104.85 70.2098ZM108.63 69.486L108.27 71.205H107.01C106.47 71.205 105.75 71.205 105.75 70.4812C105.75 69.8479 106.2 69.486 107.01 69.486H108.63Z" fill="#8E8F8F"/>
<path d="M131.58 66.7714C130.68 66.7714 129.78 67.2238 129.15 67.9476C128.34 69.2143 127.98 70.6619 127.89 72.1095C127.71 73.2857 128.52 74.281 129.69 74.3714C129.87 74.3714 129.96 74.3714 130.14 74.3714C132.03 74.3714 133.2 72.6524 133.2 70.8429C133.29 69.7571 132.48 68.7619 131.4 68.6714C131.22 68.6714 131.13 68.6714 130.95 68.6714C130.14 68.6714 129.42 69.1238 128.97 69.8476C129.42 68.4905 130.14 67.7667 131.31 67.6762C132.3 67.5857 133.47 67.6762 133.74 66.5H132.84C132.66 66.681 132.3 66.681 131.58 66.7714ZM130.86 69.3952C131.58 69.3048 132.21 69.8476 132.21 70.5714C132.21 70.6619 132.21 70.7524 132.21 70.8429C132.21 72.381 131.31 73.5571 130.23 73.5571C129.51 73.5571 128.79 73.0143 128.79 72.2C128.79 72.1095 128.79 72.019 128.79 71.9286C128.79 70.8429 129.51 69.3952 130.86 69.3952Z" fill="#8E8F8F"/>
<path d="M141.3 71.7479C140.94 73.1051 140.58 73.5574 140.13 73.5574C139.95 73.5574 139.86 73.5574 139.68 73.467L139.5 74.1908C139.68 74.2813 139.95 74.2813 140.13 74.2813C141.03 74.2813 141.66 73.6479 142.11 71.9289L142.74 69.486H144.63L143.64 74.2813H144.54L145.71 68.7622H142.02L141.3 71.7479Z" fill="#8E8F8F"/>
<path d="M137.61 68.5811C137.52 68.5811 137.34 68.5811 137.25 68.5811C135.54 68.5811 134.28 70.1192 134.28 72.1096C134.19 73.2858 135 74.3715 136.17 74.462C136.26 74.462 136.44 74.462 136.53 74.462C137.7 74.5525 138.78 73.7382 139.05 72.562H138.15C137.97 73.2858 137.34 73.7382 136.62 73.7382C135.72 73.6477 135.09 72.8334 135.18 72.0191C135.18 71.9287 135.18 71.9287 135.18 71.8382H139.32C139.41 71.5668 139.41 71.2049 139.41 70.9334C139.5 69.7572 138.69 68.6715 137.61 68.5811ZM138.51 70.7525C138.51 70.843 138.51 70.9334 138.51 70.9334H135.36C135.45 70.0287 136.26 69.3049 137.25 69.2144C137.97 69.1239 138.6 69.6668 138.6 70.3906C138.51 70.5715 138.51 70.662 138.51 70.7525Z" fill="#8E8F8F"/>
<path d="M85.2299 68.5811C85.1399 68.5811 84.9599 68.5811 84.8699 68.5811C83.1599 68.5811 81.8999 70.1192 81.8999 72.1096C81.8099 73.2858 82.6199 74.3715 83.7899 74.462C83.8799 74.462 84.0599 74.462 84.1499 74.462C85.3199 74.5525 86.3999 73.7382 86.6699 72.562H85.7699C85.5899 73.2858 84.9599 73.7382 84.2399 73.7382C83.5199 73.7382 82.7999 73.1953 82.7999 72.3811C82.7999 72.2906 82.7999 72.2001 82.7999 72.1096C82.7999 72.0192 82.7999 71.8382 82.7999 71.7477H86.9399C87.0299 71.4763 87.0299 71.1144 87.0299 70.843C87.2099 69.7572 86.3999 68.6715 85.2299 68.5811ZM86.2199 70.7525C86.2199 70.843 86.2199 70.843 86.2199 70.9334H83.0699C83.1599 70.0287 83.9699 69.3049 84.9599 69.2144C85.6799 69.1239 86.3099 69.6668 86.3099 70.3906C86.2199 70.5715 86.2199 70.662 86.2199 70.7525Z" fill="#8E8F8F"/>
<path d="M66.4198 68.5811C66.3298 68.5811 66.1498 68.5811 66.0598 68.5811C64.3498 68.5811 63.0898 70.1192 63.0898 72.1096C62.9998 73.2858 63.8098 74.3715 64.9798 74.462C65.0698 74.462 65.2498 74.462 65.3398 74.462C66.5098 74.5525 67.5898 73.7382 67.8598 72.562H66.9598C66.7798 73.2858 66.1498 73.7382 65.4298 73.7382C64.5298 73.6477 63.8998 72.9239 63.9898 72.0191C63.9898 71.9287 63.9898 71.8382 63.9898 71.8382H68.1298C68.2198 71.5668 68.2198 71.2049 68.2198 70.9334C68.3098 69.7572 67.4998 68.6715 66.4198 68.5811ZM67.3198 70.7525C67.3198 70.843 67.3198 70.9334 67.3198 70.9334H64.1698C64.2598 70.0287 65.0698 69.3049 66.0598 69.2144C66.7798 69.1239 67.4098 69.6668 67.4098 70.3906C67.4098 70.5715 67.3198 70.662 67.3198 70.7525Z" fill="#8E8F8F"/>
<path d="M60.3898 73.467H58.0498L59.1298 68.7622H58.2298L57.1498 73.467H54.8998L55.8898 68.7622H54.9898L53.8198 74.2813H61.1098L62.2798 68.7622H61.3798L60.3898 73.467Z" fill="#8E8F8F"/>
<path d="M150.84 68.6714L147.51 73.1952L148.41 68.6714H147.51L146.34 74.2809H147.6L151.02 69.7571L150.03 74.2809H150.93L152.1 68.6714H150.84Z" fill="#8E8F8F"/>
<path d="M51.2099 68.5811C51.1199 68.5811 50.9399 68.5811 50.8499 68.5811C49.1399 68.5811 47.8799 70.1192 47.8799 72.1096C47.7899 73.2858 48.5999 74.3715 49.7699 74.462C49.8599 74.462 50.0399 74.462 50.1299 74.462C51.2999 74.5525 52.3799 73.7382 52.6499 72.562H51.7499C51.5699 73.2858 50.9399 73.7382 50.2199 73.7382C49.4999 73.7382 48.7799 73.1953 48.7799 72.3811C48.7799 72.2906 48.7799 72.2001 48.7799 72.1096C48.7799 72.0192 48.7799 71.8382 48.7799 71.7477H52.9199C53.0099 71.4763 53.0099 71.1144 53.0099 70.843C53.1899 69.7572 52.3799 68.6715 51.2099 68.5811ZM52.1999 70.7525C52.1999 70.843 52.1999 70.843 52.1999 70.9334H49.0499C49.1399 70.0287 49.9499 69.3049 50.9399 69.2144C51.6599 69.1239 52.2899 69.6668 52.2899 70.3906C52.1999 70.5715 52.1999 70.662 52.1999 70.7525Z" fill="#8E8F8F"/>
<path d="M76.4999 73.1955L77.4899 68.7622H76.5899L75.4199 74.2813H76.5899L80.0099 69.7574L79.0199 74.2813H79.9199L81.0899 68.7622H79.9199L76.4999 73.1955Z" fill="#8E8F8F"/>
<path d="M73.3498 70.9336H70.6498L71.0998 68.7622H70.1998L69.0298 74.2813H69.9298L70.4698 71.6574H73.1698L72.7198 74.2813H73.6198L74.7898 68.7622H73.8898L73.3498 70.9336Z" fill="#8E8F8F"/>
<path d="M105.84 36.5527H95.2197V50.3051H107.37C109.53 50.3051 111.96 46.1432 111.96 43.4289C111.96 40.6242 108.9 36.5527 105.84 36.5527ZM104.94 46.0527C102.42 46.0527 100.53 46.0527 100.53 46.0527V40.7146C100.53 40.7146 102.06 40.7146 104.94 40.7146C107.82 40.8051 107.46 46.0527 104.94 46.0527Z" fill="#8E8F8F"/>
</g>
<defs>
<clipPath id="clip0_15_474">
<rect width="153" height="76" fill="white"/>
</clipPath>
</defs>
</svg>
