<svg width="104" height="65" viewBox="0 0 104 65" fill="none" xmlns="http://www.w3.org/2000/svg">
<g opacity="0.2" clip-path="url(#clip0_331_1274)">
<path d="M64.2002 43.0002L93.4002 26.2002V21.2002L64.2002 38.1002V43.0002Z" fill="#323232"/>
<path d="M64.2002 21.8L93.4002 4.9V0L64.2002 16.9V21.8Z" fill="#323232"/>
<path d="M14.2 64.4002V53.4002H5.6V64.4002H0.5H0V37.8002H5.6V48.9002H14.2V37.8002H19.8V64.4002H14.2ZM93.4 54.9002C93.4 53.3002 93.8 51.8002 94.4 50.4002C94.7 49.8002 95.1 49.3002 95.6 48.8002C95.9 48.5002 96.3 48.3002 96.7 48.3002C97.3 48.2002 97.9 48.2002 98.2 48.8002C98.3 49.0002 98.3 49.2002 98.4 49.3002C98.6 50.2002 98.6 51.9002 98.6 52.5002V64.4002H104V50.4002C104 48.5002 103.6 46.6002 102.4 45.1002C101.3 43.9002 100.1 43.4002 98.7 43.4002C96.5 43.3002 94.1 44.7002 93.5 46.9002V34.7002L88 37.9002V64.5002H93.4V54.9002ZM22.6 60.6002C22 59.6002 21.6 58.5002 21.3 57.3002C21 56.0002 20.9 54.6002 20.9 53.2002C20.9 52.2002 21 51.3002 21.1 50.4002C21.3 49.5002 21.5 48.8002 21.8 48.0002C22.2 47.1002 22.8 46.2002 23.5 45.6002C24.4 44.8002 25.4 44.2002 26.6 43.9002C27.5 43.7002 28.4 43.6002 29.4 43.6002C30.1 43.6002 30.9 43.7002 31.6 43.9002C32.5 44.1002 33.3 44.5002 33.9 45.0002C34.7 45.6002 35.4 46.3002 35.9 47.2002C36.5 48.3002 36.8 49.5002 37 50.9002C37.1 51.5002 37.1 52.2002 37.1 52.9002V53.9002H31.6H26C26.1 54.8002 26.3 55.7002 26.6 56.5002C26.9 57.2002 27.2 57.9002 27.7 58.6002C28.2 59.2002 28.7 59.8002 29.4 60.2002C30.3 60.8002 31.3 61.0002 32.4 61.0002C33.5 61.0002 34.7 60.7002 35.7 60.3002L36.4 60.0002V64.4002L36 64.5002C35 64.8002 33.9 65.1002 32.8 65.2002C32.1 65.3002 31.4 65.3002 30.7 65.3002C30 65.3002 29.3 65.2002 28.6 65.1002C27.9 64.9002 27.1 64.7002 26.4 64.5002C25.7 64.2002 25.1 63.9002 24.5 63.4002C23.8 62.3002 23.1 61.5002 22.6 60.6002ZM31.7 49.6002C31.6 49.4002 31.6 49.2002 31.5 49.0002C31.3 48.5002 31.1 48.1002 30.6 47.8002C30.4 47.6002 30.2 47.5002 29.9 47.5002C29.2 47.3002 28.3 47.3002 27.6 47.7002C27.1 48.0002 26.6 48.4002 26.4 49.0002C26.3 49.2002 26.2 49.4002 26.1 49.6002H31.7ZM45.5 48.1002V56.8002C45.5 57.2002 45.5 57.6002 45.6 58.0002C45.7 58.6002 45.8 59.3002 46.1 59.8002C46.4 60.2002 46.7 60.4002 47.2 60.5002C47.7 60.6002 48.3 60.6002 48.9 60.5002C49.4 60.4002 50 60.2002 50.5 60.1002V64.5002H50C49.4 64.6002 48.8 64.7002 48.1 64.8002C47.5 64.9002 46.9 64.9002 46.2 64.9002C45.5 64.9002 44.9 64.8002 44.3 64.7002C43.4 64.5002 42.6 64.3002 41.9 63.7002C41.3 63.3002 40.9 62.7002 40.6 62.1002C40.4 61.7002 40.3 61.3002 40.2 60.9002C40 60.0002 40 59.1002 40 58.2002V48.2002H36.4V43.9002H40V37.9002L45.4 34.8002V43.9002H52.3V37.9002L57.7 34.8002V43.9002H63.1V48.2002H57.6V56.8002C57.6 57.2002 57.6 57.6002 57.7 58.0002C57.8 58.6002 57.9 59.3002 58.2 59.8002C58.5 60.2002 58.8 60.4002 59.3 60.5002C59.8 60.6002 60.4 60.6002 61 60.5002C61.5 60.4002 62.1 60.2002 62.6 60.1002V64.5002L62.1 64.6002C61.5 64.7002 60.9 64.8002 60.2 64.9002C59.6 65.0002 59 65.0002 58.3 65.0002C57.6 65.0002 57 64.9002 56.4 64.8002C55.5 64.6002 54.7 64.4002 54 63.8002C53.4 63.4002 53 62.8002 52.7 62.2002C52.5 61.8002 52.4 61.4002 52.3 61.0002C52.1 60.1002 52.1 59.2002 52.1 58.3002V48.2002H45.2V48.1002H45.5ZM64.7 64.4002H64.2V43.8002H69.6V64.4002H64.7ZM72.2 60.4002C71.6 59.4002 71.2 58.4002 70.9 57.1002C70.7 56.1002 70.5 55.1002 70.5 54.0002C70.4 52.9002 70.5 51.9002 70.7 50.9002C70.9 49.9002 71.1 49.1002 71.5 48.2002C72 47.1002 72.7 46.0002 73.7 45.2002C74.7 44.4002 75.9 43.8002 77.4 43.5002C78.8 43.2002 80.4 43.2002 81.8 43.5002C82.9 43.7002 83.8 44.1002 84.6 44.7002C85.5 45.4002 86.2 46.3002 86.6 47.4002C87 48.4002 87.2 49.5002 87.2 50.6002C87.2 50.9002 87.2 51.2002 87.2 51.6002H81.5V51.1002C81.5 50.8002 81.5 50.5002 81.4 50.2002C81.3 49.6002 81.2 49.0002 80.9 48.5002C80.6 48.1002 80.3 47.8002 79.8 47.8002C79.4 47.7002 78.9 47.7002 78.5 47.9002C78.1 48.0002 77.7 48.3002 77.4 48.6002C77 49.0002 76.8 49.5002 76.6 49.9002C76.4 50.3002 76.4 50.7002 76.3 51.1002C76.1 52.2002 76.1 53.3002 76.4 54.3002C76.5 54.9002 76.6 55.5002 76.8 56.0002C77.3 57.4002 78.1 58.7002 79.3 59.5002C79.9 60.0002 80.7 60.3002 81.7 60.5002C82.6 60.7002 83.6 60.7002 84.5 60.6002C85.2 60.5002 85.7 60.4002 86.3 60.2002L87 60.0002V64.0002L86.6 64.1002C85.5 64.5002 84.2 64.8002 82.9 64.9002C82.3 65.0002 81.6 65.0002 80.9 65.0002C80.3 65.0002 79.6 64.9002 79 64.8002C77.9 64.6002 76.9 64.4002 76 63.9002C74.4 63.1002 73.1 61.9002 72.2 60.4002Z" fill="#323232"/>
<path d="M64.2002 35.8996L93.4002 18.9996V14.0996L64.2002 30.9996V35.8996Z" fill="#323232"/>
<path d="M64.2002 28.8996L93.4002 11.9996V7.09961L64.2002 23.8996V28.8996Z" fill="#323232"/>
</g>
<defs>
<clipPath id="clip0_331_1274">
<rect width="104" height="65" fill="white"/>
</clipPath>
</defs>
</svg>
