<svg width="184" height="37" viewBox="0 0 184 37" fill="none" xmlns="http://www.w3.org/2000/svg">
<g clip-path="url(#clip0_342_2415)">
<path d="M37.0957 35.8604H29.7915V6.98166H22.4053V0H37.0957V35.8604Z" fill="#ED1847"/>
<path d="M19.614 -0.000976562H-0.000488281V6.98069H19.614V-0.000976562Z" fill="#D1D3D5"/>
<path d="M27.0823 9.67969H-0.000488281V16.6614H27.0823V9.67969Z" fill="#D1D3D5"/>
<path d="M27.0823 19.3584H-0.000488281V26.2608H27.0823V19.3584Z" fill="#D1D3D5"/>
<path d="M27.0823 28.8789H-0.000488281V35.7812H27.0823V28.8789Z" fill="#D1D3D5"/>
<path d="M177.599 22.4531C174.561 22.4531 172.018 24.2778 172.018 27.372C172.018 30.4661 174.643 31.7356 174.643 31.7356L171.689 35.8611H174.89L177.269 32.2909H181.291V35.8611H183.999V22.4531C184.081 22.4531 180.635 22.4531 177.599 22.4531ZM181.373 29.9108C181.373 29.9108 178.994 29.9108 177.517 29.9108C176.038 29.9108 174.808 28.9588 174.808 27.4513C174.808 25.9439 175.956 24.8332 177.517 24.8332C179.076 24.8332 181.373 24.8332 181.373 24.8332V29.9108Z" fill="#2A3A54"/>
<path d="M54.0821 28.8001L49.4043 22.4531H46.5317V35.8611H49.3221V26.5786L53.4255 32.3702H54.5745L58.678 26.5786V35.8611H61.5504V22.4531H58.678L54.0821 28.8001Z" fill="#2A3A54"/>
<path d="M67.6235 30.0695H75.2559V27.61H67.6235V24.9126H76.0765V22.4531H64.833V35.8611H76.4869V33.4017H67.6235V30.0695Z" fill="#2A3A54"/>
<path d="M97.1678 30.0695H104.226V27.61H97.0857V24.9126H105.129V22.4531H94.2954V35.8611H105.457V33.4017H97.1678V30.0695Z" fill="#2A3A54"/>
<path d="M86.58 26.9754C84.1179 26.9754 82.2303 26.9754 82.2303 26.9754V24.8332H90.109V22.4531H79.4399V35.7817C79.4399 35.7817 84.1999 35.7817 86.7441 35.7817C89.2883 35.7817 91.5041 34.1156 91.5041 31.1802C91.5041 28.2447 89.0421 26.9754 86.58 26.9754ZM86.4159 33.4809C85.1848 33.4809 82.1482 33.4809 82.1482 33.4809V29.3554C82.1482 29.3554 85.1028 29.3554 86.3338 29.3554C87.5648 29.3554 88.7138 29.9108 88.7138 31.2595C88.7958 32.6876 87.647 33.4809 86.4159 33.4809Z" fill="#2A3A54"/>
<path d="M111.038 31.8148C110.874 32.8463 110.627 33.4809 109.725 33.4809C108.822 33.4809 108.247 33.2429 108.247 33.2429L107.673 35.3851C107.673 35.3851 108.001 35.8611 110.135 35.8611C112.269 35.8611 113.254 34.671 113.582 32.9256C113.91 31.2595 114.731 24.7539 114.731 24.7539H119.573V35.7023H122.281V22.4531H112.433C112.433 22.4531 111.202 30.7835 111.038 31.8148Z" fill="#2A3A54"/>
<path d="M131.885 26.2592C129.751 26.2592 128.273 26.2592 128.273 26.2592V22.5303H125.565V35.859C125.565 35.859 129.916 35.859 132.131 35.859C134.264 35.859 137.384 34.6689 137.384 30.7814C137.384 27.1319 134.018 26.2592 131.885 26.2592ZM132.131 33.3996C130.572 33.3996 128.355 33.3996 128.355 33.3996V28.56C128.355 28.56 130.572 28.56 132.049 28.56C133.608 28.56 134.675 29.4327 134.675 30.7814C134.675 32.3681 133.69 33.3996 132.131 33.3996Z" fill="#2A3A54"/>
<path d="M149.693 27.5307H142.964V22.4531H140.174V35.8611H142.964V29.9108H149.693V35.8611H152.484V22.4531H149.693V27.5307Z" fill="#2A3A54"/>
<path d="M161.019 22.4531L155.109 35.8611H158.063L159.048 33.4809H166.188L167.173 35.8611H170.128L164.301 22.5325H161.019V22.4531ZM160.033 31.0215L162.249 24.9126H162.906L165.121 31.0215H160.033Z" fill="#2A3A54"/>
<path d="M80.7557 9.52096C80.7557 9.52096 82.6433 9.52096 84.695 9.52096C86.7467 9.52096 90.0295 8.64824 90.0295 5.07808C90.0295 1.26989 86.993 0.15918 84.8592 0.15918C82.7253 0.15918 77.9653 0.15918 77.9653 0.15918V13.2498H80.6736V9.52096H80.7557ZM80.7557 2.45996C80.7557 2.45996 83.3819 2.45996 84.9413 2.45996C86.4185 2.45996 87.4033 3.49134 87.4033 4.99874C87.4033 6.34748 86.3365 7.14084 84.8592 7.14084C83.3819 7.14084 80.7557 7.14084 80.7557 7.14084V2.45996Z" fill="#2A3A54"/>
<path d="M49.3221 2.38011H57.2828V13.3286H60.0731V0H46.5317V13.3286H49.3221V2.38011Z" fill="#2A3A54"/>
<path d="M105.049 9.36252C105.049 6.66505 102.833 6.03036 102.833 6.03036C102.833 6.03036 104.228 5.63367 104.228 3.3329C104.228 0.952786 101.848 0.0800781 99.632 0.0800781C97.4161 0.0800781 92.8203 0.0800781 92.8203 0.0800781V13.5674C92.8203 13.5674 97.1699 13.5674 99.9603 13.5674C102.915 13.5674 105.049 12.06 105.049 9.36252ZM95.6106 2.38085C95.6106 2.38085 98.9755 2.38085 99.8782 2.38085C100.781 2.38085 101.602 2.77754 101.602 3.72958C101.602 4.68163 101.027 5.15765 100.124 5.15765C99.2216 5.15765 95.6106 5.15765 95.6106 5.15765V2.38085ZM95.6106 7.45843C95.6106 7.45843 98.8934 7.45843 100.289 7.45843C101.684 7.45843 102.422 8.17246 102.422 9.28317C102.422 10.3939 101.602 11.1873 100.453 11.1873C99.3037 11.1873 95.6927 11.1873 95.6927 11.1873V7.45843H95.6106Z" fill="#2A3A54"/>
<path d="M75.0094 10.9485H66.228V7.53702H73.7783V5.1569H66.1458V2.38011H74.681V0H63.3555V13.3286H75.0094V10.9485Z" fill="#2A3A54"/>
<path d="M125.975 13.3286L128.354 9.75846H132.376V13.3286H135.084V0C135.084 0 131.638 0 128.6 0C125.564 0 123.02 1.82476 123.02 4.9189C123.02 8.01304 125.646 9.28244 125.646 9.28244L122.692 13.408H125.975V13.3286ZM128.518 2.38011C130.079 2.38011 132.376 2.38011 132.376 2.38011V7.45768C132.376 7.45768 129.997 7.45768 128.518 7.45768C127.041 7.45768 125.811 6.50564 125.811 4.99823C125.729 3.49083 126.877 2.38011 128.518 2.38011Z" fill="#2A3A54"/>
<path d="M110.054 10.9485H117.194L118.179 13.3286H121.133L115.307 0H112.024L106.115 13.3286H109.069L110.054 10.9485ZM113.255 2.45945H113.911L116.127 8.5684H110.957L113.255 2.45945Z" fill="#2A3A54"/>
</g>
<defs>
<clipPath id="clip0_342_2415">
<rect width="184" height="37" fill="white"/>
</clipPath>
</defs>
</svg>
