<svg width="35" height="36" viewBox="0 0 35 36" fill="none" xmlns="http://www.w3.org/2000/svg">
<g clip-path="url(#clip0_342_2476)">
<path d="M0.746777 17.7844C0.745957 20.8091 1.52033 23.7625 2.99279 26.3657L0.605957 35.2599L9.52439 32.8733C11.9911 34.2439 14.7549 34.962 17.5635 34.9622H17.5708C26.8424 34.9622 34.3897 27.2622 34.3937 17.798C34.3954 13.2119 32.6471 8.89942 29.4706 5.65495C26.2946 2.41077 22.0707 0.623187 17.5702 0.621094C8.29748 0.621094 0.750742 8.32063 0.746914 17.7844" fill="url(#paint0_linear_342_2476)"/>
<path d="M0.146289 17.779C0.145332 20.9125 0.947461 23.9715 2.47242 26.6679L0 35.881L9.23822 33.4088C11.7837 34.8253 14.6496 35.572 17.5658 35.5732H17.5733C27.1775 35.5732 34.9959 27.5962 35 17.7932C35.0016 13.0423 33.1904 8.57484 29.9004 5.21414C26.61 1.85386 22.235 0.00195349 17.5733 0C7.96742 0 0.150117 7.97581 0.146289 17.779ZM5.64785 26.2035L5.30291 25.6447C3.85287 23.2916 3.08752 20.5723 3.08861 17.7801C3.09176 9.63195 9.58918 3.00279 17.5788 3.00279C21.4479 3.00447 25.0841 4.54381 27.819 7.33674C30.5538 10.13 32.0586 13.843 32.0577 17.7921C32.0541 25.9402 25.5566 32.5702 17.5733 32.5702H17.5675C14.9681 32.5688 12.4187 31.8564 10.1954 30.51L9.66629 30.1898L4.18414 31.6567L5.64785 26.2034V26.2035Z" fill="url(#paint1_linear_342_2476)"/>
<path d="M13.2177 10.3463C12.8915 9.60636 12.5482 9.59143 12.2379 9.57845C11.9839 9.56729 11.6935 9.56813 11.4034 9.56813C11.113 9.56813 10.6412 9.67962 10.2424 10.124C9.84318 10.5689 8.71826 11.6439 8.71826 13.8302C8.71826 16.0167 10.2786 18.1297 10.4962 18.4265C10.7139 18.7227 13.5085 23.3531 17.9343 25.1344C21.6126 26.6147 22.3612 26.3203 23.1595 26.246C23.9579 26.1721 25.7358 25.1713 26.0985 24.1336C26.4615 23.096 26.4615 22.2066 26.3527 22.0208C26.2438 21.8356 25.9534 21.7244 25.518 21.5023C25.0824 21.28 22.9417 20.2049 22.5426 20.0565C22.1434 19.9084 21.8531 19.8344 21.5627 20.2794C21.2723 20.7237 20.4385 21.7244 20.1843 22.0208C19.9304 22.3179 19.6763 22.3548 19.241 22.1325C18.8052 21.9096 17.4029 21.4409 15.7392 19.9271C14.4447 18.7491 13.5708 17.2945 13.3168 16.8495C13.0628 16.4052 13.2896 16.1644 13.5079 15.9429C13.7036 15.7438 13.9435 15.424 14.1614 15.1646C14.3786 14.9051 14.451 14.7199 14.5962 14.4235C14.7415 14.1269 14.6688 13.8673 14.5601 13.6451C14.451 13.4228 13.6049 11.225 13.2177 10.3463Z" fill="white"/>
</g>
<defs>
<linearGradient id="paint0_linear_342_2476" x1="1689.99" y1="3464.51" x2="1689.99" y2="0.621094" gradientUnits="userSpaceOnUse">
<stop stop-color="#1FAF38"/>
<stop offset="1" stop-color="#60D669"/>
</linearGradient>
<linearGradient id="paint1_linear_342_2476" x1="1750" y1="3588.1" x2="1750" y2="0" gradientUnits="userSpaceOnUse">
<stop stop-color="#F9F9F9"/>
<stop offset="1" stop-color="white"/>
</linearGradient>
<clipPath id="clip0_342_2476">
<rect width="35" height="36" fill="white"/>
</clipPath>
</defs>
</svg>
